<?xml version="1.0" encoding="utf-8"?>
<!DOCTYPE svg PUBLIC "-//W3C//DTD SVG 1.0//EN" "http://www.w3.org/TR/2001/REC-SVG-20010904/DTD/svg10.dtd">
<svg version="1.0" xmlns="http://www.w3.org/2000/svg" width="396px" height="555px" viewBox="0 0 396 555" preserveAspectRatio="xMidYMid meet">
 <g fill="#ffffff">
 </g>
 <g fill="#f7f7f7">
 </g>
 <g fill="#efefef">
 </g>
 <g fill="#e6e6e6">
 </g>
 <g fill="#dedede">
 </g>
 <g fill="#d6d6d6">
 </g>
 <g fill="#cecece">
  <path d="M265.9 552.5 c-0.2 -0.2 -3.1 -0.6 -6.4 -0.9 -11.9 -1 -35.7 -6.5 -37.9 -8.7 -0.6 -0.5 -1.6 -0.9 -2.4 -0.9 -3.3 0 -26.4 -11.6 -37.3 -18.7 -37.1 -24.2 -71.1 -61.7 -101.1 -111.7 -10.1 -16.8 -20.2 -35.5 -27.2 -50.1 -3.7 -7.7 -7.1 -14.8 -7.7 -15.7 -1.8 -3.4 -13.1 -30.3 -16.9 -40.2 -6.8 -18 -14.9 -43.5 -16.6 -52.5 -0.3 -1.4 -0.7 -2.8 -0.9 -3.1 -0.2 -0.4 -0.7 -2.2 -1 -4.1 -0.3 -1.9 -1.2 -6.1 -2 -9.4 -5.9 -26.2 -7.9 -64.2 -4.5 -88 3 -20.6 8.8 -41 15.8 -55.2 5 -10.1 7.6 -14.7 9.4 -16.7 1 -1.1 1.8 -2.4 1.8 -2.9 0 -1.1 8.3 -12 13.5 -17.6 15.7 -17.1 29.3 -26.8 54.5 -38.8 23.6 -11.4 25.3 -12.1 32 -14.1 0.8 -0.3 4.9 -0.5 9 -0.6 6.2 -0.1 8.4 0.3 12.4 2.4 9.6 4.9 16.9 14.5 24.9 32.5 2.8 6.4 6.7 16.8 7.2 19.5 0.1 0.3 1.1 3.7 2.3 7.5 1.2 3.9 2.1 7.2 2 7.5 -0.1 0.3 0.4 1.4 1 2.6 0.6 1.2 2.8 8.6 4.8 16.5 3 12 3.7 16.5 4 27.3 0.3 11.7 0.1 13.6 -2.2 20.4 -3.6 10.7 -7.6 16.3 -17 23.3 -5.3 3.9 -29.9 16.2 -38.9 19.4 -11.8 4.1 -17 7.5 -23.3 14.9 -8.5 10 -10.6 29.1 -5.8 52.1 6.2 29.8 32 86.5 53.3 117.2 13.3 19.2 27.8 33.6 39.3 39 4.2 2 13.2 4.3 16.8 4.3 4.7 0 14.6 -2.7 18.5 -5 1.7 -1.1 4.1 -2.4 5.2 -3 1.1 -0.5 3.8 -2.1 6 -3.5 2.2 -1.3 6 -3.4 8.5 -4.6 2.5 -1.2 8.5 -4.1 13.4 -6.6 4.9 -2.4 11.6 -5 14.9 -5.9 6.9 -1.8 18.9 -2 23.2 -0.4 11.6 4.2 18 8.3 29 18.6 10.6 10 39.3 51.1 46.4 66.6 3.8 8.2 5.4 12.3 5 12.3 -0.1 0 0.3 1 0.9 2.2 2 3.6 2.6 14.9 1.1 20.1 -2.1 7.8 -9 16.3 -16.4 20.4 -9.9 5.4 -22.5 11.6 -22.5 11.1 0 -0.3 -0.8 0.1 -1.7 0.9 -6.6 5.8 -36.7 16.6 -51.3 18.4 -1.9 0.2 -4.3 0.7 -5.2 1 -2 0.6 -29.4 1.5 -29.9 0.9z"/>
 </g>
 <g fill="#c5c5c5">
 </g>
 <g fill="#bdbdbd">
 </g>
 <g fill="#b5b5b5">
 </g>
 <g fill="#adadad">
 </g>
 <g fill="#a5a5a5">
 </g>
 <g fill="#9c9c9c">
 </g>
 <g fill="#949494">
 </g>
 <g fill="#8c8c8c">
 </g>
 <g fill="#848484">
 </g>
 <g fill="#7b7b7b">
 </g>
 <g fill="#737373">
 </g>
 <g fill="#6b6b6b">
 </g>
 <g fill="#636363">
 </g>
 <g fill="#5a5a5a">
 </g>
 <g fill="#525252">
 </g>
 <g fill="#4a4a4a">
 </g>
 <g fill="#424242">
 </g>
 <g fill="#3a3a3a">
 </g>
 <g fill="#313131">
 </g>
 <g fill="#292929">
 </g>
 <g fill="#212121">
 </g>
 <g fill="#191919">
 </g>
 <g fill="#101010">
 </g>
 <g fill="#080808">
 </g>
 <g fill="#000000">
 </g>
</svg>