<?xml version="1.0" encoding="utf-8"?>
<!DOCTYPE svg PUBLIC "-//W3C//DTD SVG 1.0//EN" "http://www.w3.org/TR/2001/REC-SVG-20010904/DTD/svg10.dtd">
<svg version="1.0" xmlns="http://www.w3.org/2000/svg" width="313px" height="387px" viewBox="0 0 313 387" preserveAspectRatio="xMidYMid meet">
 <g fill="#ffffff">
 </g>
 <g fill="#f7f7f7">
 </g>
 <g fill="#efefef">
 </g>
 <g fill="#e6e6e6">
 </g>
 <g fill="#dedede">
 </g>
 <g fill="#d6d6d6">
 </g>
 <g fill="#cecece">
  <path d="M119.5 385.3 c-13.2 -0.2 -23.4 -0.8 -23.9 -1.3 -0.6 -0.6 -5 -1 -9.8 -1 -5.2 0 -8.8 -0.4 -8.8 -1 0 -0.6 -3.5 -1 -8.5 -1 -5 0 -8.5 -0.4 -8.5 -1 0 -0.5 -1.2 -1 -2.6 -1 -3 0 -22.1 -4.7 -24.6 -6.1 -1 -0.5 -2.7 -0.9 -3.8 -0.9 -1.1 0 -2 -0.4 -2 -1 0 -0.5 -1.1 -1 -2.5 -1 -1.4 0 -2.5 -0.4 -2.5 -1 0 -0.5 -0.7 -1 -1.6 -1 -0.8 0 -2.2 -0.6 -2.9 -1.2 -3.3 -3 -4.5 -3.8 -4.5 -3.3 0 0.4 -0.7 0 -1.5 -0.7 -0.8 -0.7 -2 -1.8 -2.7 -2.4 -2.4 -2.1 -5.8 -6.4 -5.8 -7.4 0 -0.6 -0.4 -1 -1 -1 -0.6 0 -1 -7.8 -1 -21.5 0 -13.7 0.4 -21.5 1 -21.5 0.6 0 1 -0.6 1 -1.4 0 -2 4.9 -10.8 7.1 -12.7 1 -0.9 1.9 -2.4 1.9 -3.3 0 -1 0.4 -1.4 1 -1.1 0.5 0.3 1 -0.1 1 -0.9 0 -0.9 0.3 -1.6 0.8 -1.6 0.4 0 2.4 -1.6 4.4 -3.5 2 -1.9 3.9 -3.5 4.2 -3.5 0.4 0 2 -1.3 3.7 -3 1.7 -1.6 4 -3.2 5 -3.5 1.1 -0.4 1.9 -1.1 1.9 -1.6 0 -0.5 0.8 -0.9 1.8 -0.9 1 0 2.4 -0.9 3.2 -2 0.8 -1.1 2.5 -2 3.7 -2 1.3 0 2.3 -0.4 2.3 -1 0 -0.5 0.9 -1 2 -1 1.1 0 2 -0.4 2 -1 0 -0.5 0.9 -1 1.9 -1 1.1 0 2.1 -0.3 2.3 -0.7 0.4 -1.1 7.5 -4.3 9.3 -4.3 0.8 0 1.5 -0.4 1.5 -1 0 -0.5 1.1 -1 2.5 -1 1.4 0 2.5 -0.4 2.5 -1 0 -0.5 1.4 -1 3 -1 1.7 0 3 -0.4 3 -1 0 -0.5 1.3 -1 2.9 -1 1.7 0 3.2 -0.4 3.5 -0.9 0.3 -0.5 2 -1.1 3.8 -1.4 1.8 -0.3 6 -1.3 9.3 -2.2 3.3 -0.9 7.2 -1.9 8.8 -2.2 1.5 -0.3 2.7 -0.9 2.7 -1.4 0 -0.5 0.7 -0.9 1.6 -0.9 1.8 0 4.4 -2.3 4.4 -3.9 0 -0.6 0.5 -1.1 1 -1.1 0.6 0 1 -0.6 1 -1.4 0 -0.8 0.4 -1.6 1 -1.8 0.5 -0.1 1.1 -1.3 1.3 -2.5 0.2 -1.2 0.6 -2.6 1 -2.9 1.1 -1.2 0.8 -10.4 -0.4 -10.4 -0.5 0 -0.7 -0.5 -0.4 -1 0.3 -0.6 -0.1 -1.3 -0.9 -1.6 -0.9 -0.3 -1.6 -1.2 -1.6 -2 0 -0.8 -0.4 -1.4 -1 -1.4 -0.5 0 -1 -0.7 -1 -1.5 0 -0.8 -0.4 -1.5 -1 -1.5 -0.5 0 -1 -0.4 -1 -0.9 0 -0.6 -1.6 -3.6 -3.5 -6.8 -1.9 -3.2 -3.5 -6.6 -3.5 -7.5 0 -1 -0.4 -1.8 -1 -1.8 -0.5 0 -1 -1.1 -1 -2.5 0 -1.4 -0.4 -2.5 -1 -2.5 -0.5 0 -1 -1.3 -1 -3 0 -1.6 -0.4 -3 -1 -3 -0.5 0 -1 -1.2 -1 -2.6 0 -2.3 -3.3 -6.3 -5.3 -6.4 -3 -0.1 -12.7 -17.3 -12.7 -22.5 0 -1.4 -0.4 -2.5 -1 -2.5 -0.6 0 -1 -4.7 -1 -12.1 0 -11.3 0.2 -12.3 2.2 -14.1 2 -1.7 2.1 -2.2 1 -5.2 -0.7 -1.8 -1.2 -4.2 -1.2 -5.4 0 -1.2 -0.4 -2.2 -1 -2.2 -0.6 0 -1 -2.7 -1 -6 0 -3.3 -0.4 -6 -1 -6 -0.6 0 -1 -3.8 -1 -9.5 0 -5.7 0.4 -9.5 1 -9.5 0.6 0 1 -3 1 -6.9 0 -3.9 0.5 -7.3 1 -7.6 0.6 -0.3 1 -1.5 1 -2.5 0 -2.2 2.6 -10.6 4 -13.2 0.6 -1 1 -2.5 1 -3.3 0 -0.8 0.5 -1.5 1 -1.5 0.6 0 1 -1.1 1 -2.5 0 -1.4 0.5 -2.5 1 -2.5 0.6 0 1 -0.9 1 -2 0 -1.1 0.5 -2 1 -2 0.6 0 1 -0.7 1 -1.5 0 -1.3 2.1 -4.3 5.8 -8.1 0.6 -0.7 1.2 -1.5 1.2 -1.9 0 -2.3 17.7 -16.5 20.6 -16.5 0.8 0 1.4 -0.4 1.4 -1 0 -0.5 1.1 -1 2.4 -1 1.4 0 2.7 -0.4 3 -0.9 0.9 -1.4 7.3 -2.3 21 -2.8 8.3 -0.3 13.3 0 13.9 0.6 0.6 0.6 2.3 1.1 3.8 1.1 1.5 0 3.1 0.5 3.4 1 0.3 0.6 1.7 1 3 1 1.3 0 2.7 0.5 3 1 0.3 0.6 1.3 1 2.1 1 0.8 0 3.9 2.5 6.9 5.5 l5.6 5.5 10.4 0 c6.3 0 10.5 0.4 10.5 1 0 0.6 0.9 1 2 1 1.1 0 2 0.4 2 0.9 0 0.5 0.8 1.2 1.8 1.6 2.7 0.9 11.2 9.2 11.2 10.9 0 0.9 0.5 1.6 1 1.6 0.6 0 1 0.7 1 1.5 0 0.8 0.5 1.5 1 1.5 0.6 0 1 1.4 1 3 0 1.7 0.4 3 0.9 3 0.5 0 1.1 1 1.4 2.3 0.3 1.2 1.3 5.1 2.2 8.7 2.2 8.9 3.8 22 3.8 31 -0.1 9.5 -1.9 25.8 -3.3 29.5 -0.9 2.3 -0.8 3.7 0.3 6.5 3 7.2 3.9 11.8 3.4 17.1 -0.9 9.2 -4.3 21.9 -5.9 21.9 -0.5 0 -0.8 0.7 -0.8 1.5 0 0.8 -0.4 1.5 -1 1.5 -0.5 0 -1 0.7 -1 1.5 0 0.9 -2.5 4.1 -5.5 7.3 -3 3.1 -5.5 6.3 -5.5 7 0 0.6 -0.4 1.2 -1 1.2 -0.5 0 -1 1.6 -1 3.5 0 1.9 -0.4 3.5 -1 3.5 -0.5 0 -1 1.3 -1 2.9 0 1.6 -0.4 3.1 -0.8 3.3 -1.1 0.4 -6.2 9.8 -6.2 11.4 0 0.8 -0.4 1.4 -1 1.4 -0.5 0 -1 0.7 -1 1.5 0 0.8 -0.4 1.5 -1 1.5 -0.5 0 -1 0.7 -1 1.5 0 0.8 -0.4 1.5 -1 1.5 -0.5 0 -1 0.7 -1 1.5 0 0.8 -0.4 1.5 -0.8 1.5 -1 0 -2.7 3.5 -4.9 9.9 -1.2 3.6 -1.3 5.1 -0.3 8.1 1.6 4.8 6.2 10 8.9 10 1.1 0 2.1 0.4 2.1 0.9 0 0.5 1.5 1.1 3.3 1.4 1.7 0.3 5.9 1.3 9.2 2.2 3.3 0.9 7.5 1.9 9.3 2.2 1.8 0.3 3.5 0.9 3.8 1.4 0.3 0.5 1.8 0.9 3.5 0.9 1.6 0 2.9 0.5 2.9 1 0 0.6 1.4 1 3 1 1.7 0 3 0.5 3 1 0 0.6 1 1 2.2 1 2.2 0 17 6.9 17.6 8.3 0.2 0.4 1.2 0.7 2.3 0.7 1 0 1.9 0.5 1.9 1 0 0.6 0.9 1 2 1 1.1 0 2 0.4 2 0.9 0 0.5 1 1.1 2.3 1.5 2.1 0.5 3.5 1.4 8.4 5.6 0.7 0.5 1.5 1 1.8 1 0.3 0 1.7 1.1 3.1 2.5 1.4 1.4 3 2.3 3.5 1.9 0.5 -0.3 0.8 -0.2 0.7 0.3 -0.2 0.5 1.3 2.5 3.2 4.5 6.3 6.4 10 10.8 10 11.8 0 0.6 0.5 1 1 1 0.6 0 1 0.6 1 1.3 0 0.7 1.1 3.7 2.5 6.5 2.4 4.9 2.5 6.1 2.5 21.8 0 10.2 -0.4 17.4 -1.1 18.7 -1.4 2.8 -8.5 9.7 -10 9.7 -0.5 0 -0.7 0.5 -0.4 1 0.4 0.6 -0.5 1 -1.9 1 -1.4 0 -2.6 0.5 -2.6 1 0 0.6 -0.9 1 -2 1 -1.1 0 -2 0.5 -2 1 0 0.6 -0.9 1 -2 1 -1.1 0 -2 0.4 -2 0.9 0 0.5 -1.6 1.2 -3.5 1.5 -1.9 0.4 -3.5 1.1 -3.5 1.6 0 0.6 -1.3 1 -3 1 -1.6 0 -3 0.5 -3 1 0 0.6 -1.6 1 -3.5 1 -1.9 0 -3.5 0.5 -3.5 1 0 0.6 -1.5 1 -3.4 1 -1.9 0 -3.8 0.5 -4.1 1 -0.3 0.6 -1.9 1 -3.5 1 -1.6 0 -3.9 0.4 -5.2 0.9 -5.8 2.2 -19.4 4.8 -30 5.8 -3.2 0.2 -5.8 0.9 -5.8 1.4 0 0.5 -3.8 0.9 -8.4 0.9 -4.6 0 -8.6 0.4 -8.8 0.9 -0.4 1 -47 1.8 -79.3 1.4z"/>
 </g>
 <g fill="#c5c5c5">
 </g>
 <g fill="#bdbdbd">
 </g>
 <g fill="#b5b5b5">
 </g>
 <g fill="#adadad">
 </g>
 <g fill="#a5a5a5">
 </g>
 <g fill="#9c9c9c">
 </g>
 <g fill="#949494">
 </g>
 <g fill="#8c8c8c">
 </g>
 <g fill="#848484">
 </g>
 <g fill="#7b7b7b">
 </g>
 <g fill="#737373">
 </g>
 <g fill="#6b6b6b">
 </g>
 <g fill="#636363">
 </g>
 <g fill="#5a5a5a">
 </g>
 <g fill="#525252">
 </g>
 <g fill="#4a4a4a">
 </g>
 <g fill="#424242">
 </g>
 <g fill="#3a3a3a">
 </g>
 <g fill="#313131">
 </g>
 <g fill="#292929">
 </g>
 <g fill="#212121">
 </g>
 <g fill="#191919">
 </g>
 <g fill="#101010">
 </g>
 <g fill="#080808">
 </g>
 <g fill="#000000">
 </g>
</svg>