<?xml version="1.0" encoding="utf-8"?>
<!DOCTYPE svg PUBLIC "-//W3C//DTD SVG 1.0//EN" "http://www.w3.org/TR/2001/REC-SVG-20010904/DTD/svg10.dtd">
<svg version="1.0" xmlns="http://www.w3.org/2000/svg" width="14px" height="19px" viewBox="0 0 14 19" preserveAspectRatio="xMidYMid meet">
 <g fill="#030303">
  <path d="M0 9.5 l0 -9.5 7 0 7 0 0 4.6 0 4.7 -3.9 -0.6 c-3.2 -0.4 -4 -0.2 -4.4 1.3 -0.2 1 -0.1 2.4 0.4 3.1 0.5 0.8 0.9 2.4 0.9 3.7 0 1.9 -0.5 2.2 -3.5 2.2 l-3.5 0 0 -9.5z"/>
  <path d="M11 15.5 c0 -2.4 0.5 -3.5 1.5 -3.5 1 0 1.5 1.1 1.5 3.5 0 2.4 -0.5 3.5 -1.5 3.5 -1 0 -1.5 -1.1 -1.5 -3.5z"/>
 </g>
 <g fill="#353233">
  <path d="M2 14.1 c-2.1 -4.5 -2.1 -7.9 0 -6.6 0.5 0.3 1 -1.1 1.2 -3.2 0.3 -4.1 2.6 -5.7 3.5 -2.4 0.3 1.2 2 2.8 3.9 3.6 4.8 2 4.6 4.9 -0.2 4.3 l-3.5 -0.4 0.6 4.8 c0.6 4.3 0.5 4.8 -1.2 4.8 -1.4 0 -2.7 -1.5 -4.3 -4.9z"/>
  <path d="M9 16.4 c0 -2.7 2 -5.4 4 -5.4 0.8 0 1 0.8 0.6 2.3 -0.3 1.2 -0.6 3 -0.6 4 0 1 -0.8 1.7 -2 1.7 -1.5 0 -2 -0.7 -2 -2.6z"/>
 </g>
 <g fill="#656061">
  <path d="M2.9 14 c-2.7 -4.9 -2.7 -6.9 -0.2 -4.9 1.1 0.9 1.3 0.2 1.3 -4 0 -2.8 0.5 -5.1 1 -5.1 0.6 0 1 1 1 2.3 0 1.6 1 2.6 4 3.9 4.5 1.9 4.9 3.6 2.6 9.3 -1.2 2.8 -2 3.5 -4.3 3.5 -2.3 0 -3.2 -0.8 -5.4 -5z"/>
 </g>
 <g fill="#afaaab">
  <path d="M3.8 14.3 c-0.2 -0.5 -0.2 -3.6 0 -7 0.4 -6.8 2.2 -8.7 2.3 -2.5 0 3 0.2 3.3 0.9 1.7 l0.9 -2 0.1 2 c0.1 1.1 0.4 1.4 0.7 0.8 0.7 -1.9 2.3 -1.6 2.3 0.5 0 1.4 0.2 1.5 1 0.2 0.8 -1.2 1 -0.9 1 1.3 0 2.4 -0.3 2.7 -3.5 2.7 -2.4 0 -3.5 0.5 -3.5 1.5 0 1.5 -1.6 2.1 -2.2 0.8z"/>
 </g>
 <g fill="#d8d5d5">
  <path d="M4.4 15.8 c-1.2 -2.8 -0.6 -15 0.7 -14.2 0.5 0.3 0.6 1.6 0.3 2.9 -0.8 3.4 0.8 5.8 1.7 2.5 l0.7 -2.5 0.1 2.5 c0.1 2 0.3 2.2 1.1 1 0.7 -1.2 1 -1.2 1 -0.1 0 0.7 0.6 1.1 1.5 0.7 1.8 -0.6 2 2.8 0.5 6.8 -1.3 3.5 -6.2 3.7 -7.6 0.4z"/>
 </g>
 <g fill="#fbfaf9">
  <path d="M4.7 15.8 c-0.7 -2.7 0.2 -6.8 1.4 -6.8 0.5 0 0.9 -0.8 1 -1.7 0 -1.5 0.2 -1.5 0.9 0.2 0.5 1.1 0.9 1.6 0.9 1 0.1 -0.5 0.6 -0.3 1.1 0.5 0.9 1.3 1.1 1.3 2 0 0.8 -1.2 1 -1.1 1 0.6 0 1.2 -0.5 3.5 -1.1 5.3 -0.9 2.5 -1.7 3.1 -3.9 3.1 -2 0 -2.9 -0.6 -3.3 -2.2z"/>
 </g>
</svg>