<?xml version="1.0" encoding="utf-8"?>
<!DOCTYPE svg PUBLIC "-//W3C//DTD SVG 1.0//EN" "http://www.w3.org/TR/2001/REC-SVG-20010904/DTD/svg10.dtd">
<svg version="1.0" xmlns="http://www.w3.org/2000/svg" width="14px" height="17px" viewBox="0 0 14 17" preserveAspectRatio="xMidYMid meet">
 <g fill="#000000">
 </g>
 <g fill="#080808">
 </g>
 <g fill="#101010">
 </g>
 <g fill="#191919">
 </g>
 <g fill="#212121">
 </g>
 <g fill="#292929">
 </g>
 <g fill="#313131">
 </g>
 <g fill="#3a3a3a">
 </g>
 <g fill="#424242">
 </g>
 <g fill="#4a4a4a">
 </g>
 <g fill="#525252">
 </g>
 <g fill="#5a5a5a">
 </g>
 <g fill="#636363">
  <path d="M0 8.5 l0 -8.5 7 0 7 0 0 8.5 0 8.5 -7 0 -7 0 0 -8.5z"/>
 </g>
 <g fill="#6b6b6b">
  <path d="M10.3 15.8 c2.1 -0.7 2.7 -1.6 2.7 -3.9 0 -1.9 -0.5 -2.9 -1.5 -2.9 -1.8 0 -1.9 -1.2 -0.3 -2.8 2.2 -2.2 2.8 -1.2 2.8 4.8 l0 6 -3.2 -0.1 -3.3 -0.1 2.8 -1z"/>
  <path d="M7.5 11.9 c-0.4 -1.1 -0.4 -2.3 -0.2 -2.6 0.9 -0.8 2.7 0.7 2.7 2.2 0 2.3 -1.8 2.7 -2.5 0.4z"/>
  <path d="M4.7 5 c-0.4 -1.6 0 -2 2 -2 1.8 0 2.4 0.5 2.1 1.7 -0.5 2.6 -3.4 2.8 -4.1 0.3z"/>
  <path d="M0.1 2.8 c-0.1 -2.8 0 -2.8 5.9 -2.8 3.3 0 6 0.3 6 0.8 0 0.4 -2.4 0.5 -5.4 0.4 -5 -0.4 -5.5 -0.2 -5.9 2 -0.4 2.1 -0.4 2 -0.6 -0.4z"/>
 </g>
 <g fill="#737373">
  <path d="M0.1 14.3 c0.1 -2.3 0.2 -2.4 0.6 -0.6 0.3 1.8 1.3 2.3 4.6 2.6 l4.2 0.4 -4.7 0.1 c-4.6 0.2 -4.8 0.1 -4.7 -2.5z"/>
  <path d="M5 10.9 c0 -1.5 0.5 -2 2.2 -1.7 3.4 0.5 3.7 3.8 0.4 3.8 -2 0 -2.6 -0.5 -2.6 -2.1z"/>
  <path d="M11.8 9.1 c-1.4 -1.4 -1.5 -1.9 -0.2 -3.5 1.8 -2.5 2.6 -1.6 2.2 2.1 -0.3 2.8 -0.4 2.9 -2 1.4z"/>
  <path d="M5.8 6.4 c1.7 -0.8 1.5 -2.2 -0.5 -2.8 -1.1 -0.3 -0.7 -0.4 0.7 -0.3 3 0.2 3.4 3.1 0.5 3.4 -1.1 0.2 -1.4 0 -0.7 -0.3z"/>
  <path d="M4.3 0.3 c1.5 -0.2 3.7 -0.2 5 0 1.2 0.2 0 0.4 -2.8 0.4 -2.7 0 -3.8 -0.2 -2.2 -0.4z"/>
 </g>
 <g fill="#7b7b7b">
  <path d="M0.3 8.5 c0 -3.8 0.2 -5.3 0.4 -3.2 0.2 2 0.2 5.2 0 7 -0.2 1.7 -0.4 0.1 -0.4 -3.8z"/>
  <path d="M4 11 c0 -2.2 2.5 -2.7 5 -1 1.3 0.9 1.3 1.1 0 2 -2.5 1.7 -5 1.2 -5 -1z"/>
  <path d="M12.2 9.3 c-0.9 -0.3 -1.1 -1.6 -0.6 -3.9 0.5 -2.9 0.3 -3.5 -1.7 -4.3 -2.3 -0.9 -2.2 -1 0.9 -1 3.2 -0.1 3.2 -0.1 3.2 4.9 0 2.8 -0.1 5 -0.2 4.9 -0.2 0 -0.9 -0.3 -1.6 -0.6z"/>
  <path d="M5.8 6.3 c2.6 -0.5 2.9 -1.9 0.5 -2.7 -1.4 -0.4 -1.4 -0.4 0.2 -0.3 2.9 0.3 2.5 3.2 -0.5 3.4 -2.2 0.1 -2.2 0.1 -0.2 -0.4z"/>
 </g>
 <g fill="#848484">
  <path d="M6 11.5 c0 -2.7 0.6 -3 2.9 -1.6 1.7 1.1 0.7 4.1 -1.4 4.1 -0.9 0 -1.5 -0.9 -1.5 -2.5z"/>
 </g>
 <g fill="#8c8c8c">
  <path d="M12 2.1 c0 -0.5 -0.8 -1.2 -1.7 -1.4 -1.4 -0.4 -1.2 -0.5 0.5 -0.6 1.3 -0.1 2.2 0.5 2.2 1.4 0 0.8 -0.2 1.5 -0.5 1.5 -0.3 0 -0.5 -0.4 -0.5 -0.9z"/>
 </g>
 <g fill="#949494">
  <path d="M4 11.5 c0 -2.1 2.7 -3 4.5 -1.5 2.3 1.9 1.8 3 -1.5 3 -2 0 -3 -0.5 -3 -1.5z"/>
  <path d="M4 5 c0 -1.3 0.7 -2 2 -2 1.3 0 2 0.7 2 2 0 1.3 -0.7 2 -2 2 -1.3 0 -2 -0.7 -2 -2z"/>
 </g>
 <g fill="#9c9c9c">
  <path d="M4.2 11.8 c0.2 -1.7 0.9 -2.2 2.3 -2 4.5 0.8 4.4 4.2 -0.1 4.2 -2.1 0 -2.5 -0.4 -2.2 -2.2z"/>
  <path d="M11.6 8.2 c-0.2 -0.4 -0.1 -1.4 0.5 -2.2 1.2 -2 1.1 -2.6 -0.7 -4.4 -1.4 -1.5 -1.4 -1.6 0.5 -1.6 1.8 0 2.1 0.6 2.1 4.5 0 4.1 -1.1 5.8 -2.4 3.7z"/>
  <path d="M4.7 6.4 c-1.6 -1.6 -0.6 -3.5 1.6 -3.2 1.2 0.2 2.2 1 2.2 1.8 0 1.6 -2.6 2.5 -3.8 1.4z"/>
 </g>
 <g fill="#a5a5a5">
  <path d="M5 12 c0 -1.3 0.7 -2 1.8 -2 2.4 0 3.2 0.8 2.5 2.6 -0.8 2.2 -4.3 1.7 -4.3 -0.6z"/>
  <path d="M4.4 5.9 c-0.9 -1.5 1.1 -3.3 3 -2.6 0.9 0.4 1.3 1.3 1 2.2 -0.7 1.7 -3 2 -4 0.4z"/>
 </g>
 <g fill="#adadad">
  <path d="M4.7 13.3 c-1.4 -1.3 -0.6 -3.3 1.3 -3.3 1.3 0 2 0.7 2 2 0 1.9 -2 2.7 -3.3 1.3z"/>
 </g>
 <g fill="#b5b5b5">
  <path d="M4.9 13.8 c-0.8 -2.7 -0.5 -3.8 1.2 -3.8 1.2 0 1.9 0.7 1.9 2 0 1.1 -0.7 2 -1.5 2 -0.8 0 -1.5 -0.1 -1.6 -0.2z"/>
  <path d="M4.5 6.1 c-0.8 -1.5 0.3 -3.1 2.1 -3.1 0.9 0 1.4 0.7 1.2 1.7 -0.4 2 -2.4 2.8 -3.3 1.4z"/>
 </g>
 <g fill="#bdbdbd">
  <path d="M6 12 c0 -1.9 2 -2.7 3.3 -1.3 0.8 0.7 -1.1 3.3 -2.4 3.3 -0.5 0 -0.9 -0.9 -0.9 -2z"/>
  <path d="M12.1 8.6 c-0.9 -1 -0.8 -1.6 0.4 -2.6 1.3 -1.1 1.5 -0.8 1.5 1.4 0 3 -0.3 3.2 -1.9 1.2z"/>
  <path d="M11.8 1.9 c-1.7 -1.8 -1.7 -1.9 0.2 -1.9 1.3 0 2 0.7 2 2 0 2.4 0 2.4 -2.2 -0.1z"/>
 </g>
 <g fill="#c5c5c5">
  <path d="M11 16.6 c0 -0.2 0.7 -0.9 1.5 -1.6 1.2 -1 1.5 -1 1.5 0.4 0 0.9 -0.7 1.6 -1.5 1.6 -0.8 0 -1.5 -0.2 -1.5 -0.4z"/>
 </g>
 <g fill="#cecece">
  <path d="M5 5 c0 -1.3 0.5 -2 1.3 -1.7 0.6 0.2 1.2 1 1.2 1.7 0 0.7 -0.6 1.5 -1.2 1.8 -0.8 0.2 -1.3 -0.5 -1.3 -1.8z"/>
 </g>
 <g fill="#d6d6d6">
  <path d="M5 12.1 c0 -1.5 0.6 -2.1 2.1 -2.1 1.4 0 1.9 0.5 1.7 1.7 -0.5 2.6 -3.8 2.9 -3.8 0.4z"/>
  <path d="M5 4.9 c0 -1.2 0.5 -1.9 1.2 -1.7 1.8 0.6 2 2.5 0.3 3.1 -1 0.5 -1.5 0 -1.5 -1.4z"/>
 </g>
 <g fill="#dedede">
  <path d="M5 12 c0 -1.3 0.7 -2 2 -2 2.4 0 2.7 2.5 0.4 3.4 -2.3 0.9 -2.4 0.8 -2.4 -1.4z"/>
  <path d="M5 4.4 c0 -1.7 2.2 -1.4 2.8 0.4 0.2 0.7 -0.3 1.2 -1.2 1.2 -0.9 0 -1.6 -0.7 -1.6 -1.6z"/>
 </g>
 <g fill="#e6e6e6">
  <path d="M12.3 8.2 c-0.8 -0.5 -0.8 -1.2 0.3 -2.6 1.3 -1.9 1.4 -1.9 1.4 0.7 0 3 0 3 -1.7 1.9z"/>
 </g>
 <g fill="#efefef">
  <path d="M12.7 8.4 c-0.4 -0.4 -0.4 -1.8 -0.1 -3.1 0.4 -1.3 0.1 -3 -0.6 -3.8 -1 -1.2 -0.9 -1.5 0.4 -1.5 1.2 0 1.6 1 1.6 4.5 0 4.6 -0.2 5 -1.3 3.9z"/>
 </g>
 <g fill="#f7f7f7">
  <path d="M5 11.5 c0 -0.8 0.9 -1.5 2 -1.5 1.1 0 2 0.7 2 1.5 0 0.8 -0.9 1.5 -2 1.5 -1.1 0 -2 -0.7 -2 -1.5z"/>
 </g>
 <g fill="#ffffff">
  <path d="M5 11.4 c0 -0.9 0.7 -1.4 1.7 -1.2 2.5 0.5 2.8 2.8 0.4 2.8 -1.2 0 -2.1 -0.6 -2.1 -1.6z"/>
  <path d="M12.9 8.3 c-0.1 -0.5 0 -2.1 0.1 -3.7 0.1 -1.6 -0.4 -3.3 -1.2 -3.7 -1 -0.7 -0.9 -0.9 0.5 -0.9 1.4 0 1.7 0.9 1.7 4.5 0 2.5 -0.2 4.5 -0.5 4.5 -0.3 0 -0.5 -0.3 -0.6 -0.7z"/>
  <path d="M5 5 c0 -0.5 0.7 -1 1.5 -1 0.8 0 1.5 0.5 1.5 1 0 0.6 -0.7 1 -1.5 1 -0.8 0 -1.5 -0.4 -1.5 -1z"/>
 </g>
</svg>