<?xml version="1.0" encoding="utf-8"?>
<!DOCTYPE svg PUBLIC "-//W3C//DTD SVG 1.0//EN" "http://www.w3.org/TR/2001/REC-SVG-20010904/DTD/svg10.dtd">
<svg version="1.0" xmlns="http://www.w3.org/2000/svg" width="34px" height="38px" viewBox="0 0 34 38" preserveAspectRatio="xMidYMid meet">
 <g fill="#000000">
  <path d="M0 19 l0 -19 12 0 12 0 0 2.5 c0 2.2 0.4 2.5 3.8 2.5 2.1 0 4.3 0.5 5 1.2 1.7 1.7 1.7 23.9 0 25.6 -0.7 0.7 -2.9 1.2 -5 1.2 -3.4 0 -3.8 0.3 -3.8 2.5 l0 2.5 -12 0 -12 0 0 -19z m16 0 l0 -10 -6 0 -6 0 0 10 0 10 6 0 6 0 0 -10z"/>
 </g>
 <g fill="#ffffff">
  <path d="M20.5 19 l0 -19 6.8 0 6.7 0 0 7.8 0 7.7 -1.9 -3.1 c-2.1 -3.4 -3.9 -4.9 -4.8 -4 -0.3 0.3 0.6 1.9 2.1 3.6 3.4 4.1 3.4 8.6 0.1 13.5 -2.5 3.6 -2.7 5.4 -0.6 4 0.6 -0.3 2 -2.3 3.1 -4.3 l1.9 -3.7 0.1 8.3 0 8.2 -6.7 0 -6.8 0 0 -19z m9.5 0.9 c0 -2.5 -2.1 -6.9 -3.3 -6.9 -0.5 0 -0.6 0.8 -0.2 1.8 1.4 3.2 1.7 7 0.6 7.6 -0.6 0.4 -1.1 1.5 -1.1 2.4 0.1 2.4 4 -2.4 4 -4.9z"/>
  <path d="M1.7 36.3 c-0.4 -0.3 -0.7 -1.2 -0.7 -2 0 -1 2.2 -1.3 9 -1.3 8.3 0 9 0.1 9 2 0 1.8 -0.7 2 -8.3 2 -4.6 0 -8.7 -0.3 -9 -0.7z"/>
  <path d="M1 19 l0 -13 9 0 9 0 0 13 0 13 -9 0 -9 0 0 -13z"/>
  <path d="M1.2 2.8 c0.3 -0.9 3.3 -1.4 9.1 -1.6 7.3 -0.2 8.7 0 8.7 1.3 0 1.2 -1.6 1.5 -9.1 1.5 -6.8 0 -9 -0.3 -8.7 -1.2z"/>
 </g>
</svg>