<?xml version="1.0" encoding="utf-8"?>
<!DOCTYPE svg PUBLIC "-//W3C//DTD SVG 1.0//EN" "http://www.w3.org/TR/2001/REC-SVG-20010904/DTD/svg10.dtd">
<svg version="1.0" xmlns="http://www.w3.org/2000/svg" width="18px" height="18px" viewBox="0 0 18 18" preserveAspectRatio="xMidYMid meet">
 <g fill="#000000">
 </g>
 <g fill="#080808">
 </g>
 <g fill="#101010">
 </g>
 <g fill="#191919">
 </g>
 <g fill="#212121">
 </g>
 <g fill="#292929">
 </g>
 <g fill="#313131">
 </g>
 <g fill="#3a3a3a">
 </g>
 <g fill="#424242">
 </g>
 <g fill="#4a4a4a">
 </g>
 <g fill="#525252">
 </g>
 <g fill="#5a5a5a">
 </g>
 <g fill="#636363">
  <path d="M0 9 l0 -9 9 0 9 0 0 9 0 9 -9 0 -9 0 0 -9z"/>
 </g>
 <g fill="#6b6b6b">
  <path d="M0 17.3 c0 -0.5 2.8 -0.7 6.2 -0.5 10.7 0.5 11.7 0.9 2.6 1.1 -4.9 0 -8.8 -0.2 -8.8 -0.6z"/>
  <path d="M2 11.5 c0 -5.1 1.4 -6 2.3 -1.6 1.1 5.4 7.9 5.3 10.2 -0.2 l1.4 -3.2 0.1 4.8 0 4.7 -7 0 -7 0 0 -4.5z"/>
  <path d="M0.2 7.8 c-0.2 -7.5 -0.1 -7.8 2.1 -7.7 1.6 0.1 1.7 0.3 0.5 0.6 -1.4 0.3 -1.8 1.9 -2.1 7.6 l-0.3 7.2 -0.2 -7.7z"/>
  <path d="M6.2 11.8 c-1.7 -1.7 -1.5 -3.8 0.3 -3.8 0.8 0 1.5 0.5 1.5 1 0 0.6 1.2 1 2.6 1 2.2 0 2.5 0.2 1.4 1.5 -1.5 1.8 -4.2 1.9 -5.8 0.3z"/>
  <path d="M15 5 c0 -0.5 -0.7 -1 -1.5 -1 -0.8 0 -1.5 -0.4 -1.5 -1 0 -0.5 0.9 -1 2 -1 1.3 0 2 0.7 2 2 0 1.1 -0.2 2 -0.5 2 -0.3 0 -0.5 -0.4 -0.5 -1z"/>
 </g>
 <g fill="#737373">
  <path d="M2.3 11.5 c-0.1 -2.5 0.2 -4.5 0.7 -4.5 0.6 0 1 1.2 1 2.6 0 1.9 0.7 2.8 3 3.7 4.1 1.6 3.8 2.7 -0.7 2.7 -3.8 0 -3.8 0 -4 -4.5z"/>
  <path d="M6 11.5 c-1.1 -1.3 -0.8 -1.5 1.4 -1.5 1.6 0 2.6 0.5 2.6 1.5 0 0.8 -0.6 1.5 -1.4 1.5 -0.7 0 -1.9 -0.7 -2.6 -1.5z"/>
  <path d="M15 5.2 c0 -0.7 -0.7 -1.2 -1.5 -1.2 -0.8 0 -1.5 -0.4 -1.5 -1 0 -0.5 0.7 -1 1.5 -1 1.7 0 3.2 2.7 2.1 3.7 -0.3 0.4 -0.6 0.1 -0.6 -0.5z"/>
  <path d="M0 0.8 c0 -0.5 2.8 -0.7 6.3 -0.7 6.7 0.1 6 0.6 -1.5 1.1 -2.7 0.2 -4.8 0 -4.8 -0.4z"/>
 </g>
 <g fill="#7b7b7b">
  <path d="M4 13.8 c0 -1.7 0.3 -1.9 1.2 -1 1.5 1.5 6.1 1.5 7.6 0 0.9 -0.9 1.2 -0.7 1.2 1 0 2 -0.5 2.2 -5 2.2 -4.5 0 -5 -0.2 -5 -2.2z"/>
  <path d="M6.2 11.8 c-2.1 -2.1 -1.3 -2.8 2.8 -2.8 2.2 0 4 0.4 4 0.8 0 1.4 -2.3 3.2 -4 3.2 -0.9 0 -2.1 -0.5 -2.8 -1.2z"/>
 </g>
 <g fill="#848484">
  <path d="M2 11.5 c0 -2.5 0.5 -4.5 1 -4.5 0.6 0 1 1.1 1 2.4 0 1.4 0.5 2.8 1 3.1 0.6 0.4 0.5 1.2 -0.4 2.1 -2.2 2.2 -2.6 1.8 -2.6 -3.1z"/>
  <path d="M6.8 11.9 c-3.3 -1.9 -1.5 -6.9 2.4 -6.9 1.1 0 1.8 0.7 1.8 2 0 1.1 -0.4 2 -0.9 2 -0.5 0 -1.1 0.9 -1.3 1.9 -0.2 1.6 -0.7 1.8 -2 1z"/>
 </g>
 <g fill="#8c8c8c">
  <path d="M12.8 12.8 c0.7 -0.7 1.2 -2.2 1.2 -3.5 0 -1.3 0.5 -2.3 1 -2.3 0.6 0 1 1.6 1 3.5 0 2.9 -0.4 3.5 -2.2 3.5 -1.7 0 -1.9 -0.3 -1 -1.2z"/>
  <path d="M9 11 c0 -1.1 -0.4 -2 -1 -2 -1.6 0 -1.2 -3 0.5 -3.6 3.8 -1.5 6.1 4.7 2.5 6.6 -1.7 0.9 -2 0.8 -2 -1z"/>
  <path d="M12 4 c0 -1.3 0.7 -2 2 -2 1.3 0 2 0.7 2 2 0 1.3 -0.7 2 -2 2 -1.3 0 -2 -0.7 -2 -2z"/>
 </g>
 <g fill="#949494">
  <path d="M2 9 c0 -1.1 0.5 -2 1 -2 0.6 0 1 0.9 1 2 0 1.1 -0.4 2 -1 2 -0.5 0 -1 -0.9 -1 -2z"/>
  <path d="M5.5 10 c-0.3 -0.5 -0.1 -1.8 0.4 -2.7 0.9 -1.6 1 -1.4 1.1 1 0 2.8 -0.5 3.4 -1.5 1.7z"/>
  <path d="M9 8 c0 -2.8 0.2 -3 2.1 -2 2.4 1.3 2.2 4.3 -0.4 4.8 -1.3 0.3 -1.7 -0.3 -1.7 -2.8z"/>
  <path d="M14 9.6 c0 -0.8 0.5 -1.8 1 -2.1 0.6 -0.3 1 0.3 1 1.4 0 1.2 -0.4 2.1 -1 2.1 -0.5 0 -1 -0.6 -1 -1.4z"/>
  <path d="M12.5 5 c-0.3 -0.5 0.3 -1 1.4 -1 1.2 0 2.1 0.5 2.1 1 0 0.6 -0.6 1 -1.4 1 -0.8 0 -1.8 -0.4 -2.1 -1z"/>
 </g>
 <g fill="#9c9c9c">
 </g>
 <g fill="#a5a5a5">
  <path d="M4.3 15.2 c-0.6 -0.4 -1.4 -2.5 -1.8 -4.6 -0.6 -2.8 -0.5 -3.7 0.4 -3.2 0.6 0.4 1.1 1.5 1.1 2.5 0 2.5 2 4.1 5 4.1 3 0 5 -1.6 5 -4.1 0 -1 0.5 -2.1 1 -2.4 0.6 -0.4 1 0.7 1 2.4 0 2.1 -0.5 3.1 -1.5 3.1 -0.8 0 -1.5 0.7 -1.5 1.5 0 1.1 -1.1 1.5 -3.7 1.5 -2.1 0 -4.3 -0.4 -5 -0.8z"/>
  <path d="M6.6 11.4 c-2.5 -2.4 -1.9 -3.7 1.4 -3.2 2.2 0.3 3 0.1 3 -1.1 0 -1.4 0.1 -1.4 1 -0.1 0.5 0.8 1 1.8 1 2.2 0 0.9 -3 3.8 -4 3.8 -0.5 0 -1.6 -0.7 -2.4 -1.6z"/>
  <path d="M12.7 5.3 c-1.4 -1.3 -0.6 -3.3 1.3 -3.3 1.3 0 2 0.7 2 2 0 1.9 -2 2.7 -3.3 1.3z"/>
 </g>
 <g fill="#adadad">
  <path d="M5 9.1 c0 -1.2 2.9 -4.1 4 -4.1 0.5 0 1.6 0.8 2.6 1.7 1.5 1.6 1.5 1.7 -0.2 2.4 -2.7 1.1 -6.4 1.1 -6.4 0z"/>
 </g>
 <g fill="#b5b5b5">
  <path d="M6 15 c0 -0.5 1.3 -1 2.9 -1 2 0 3.5 -0.8 4.5 -2.2 l1.6 -2.2 0 2.6 c0 1.4 -0.7 2.9 -1.6 3.2 -2.5 1 -7.4 0.7 -7.4 -0.4z"/>
  <path d="M2 10.5 c0 -3.2 1.6 -3.2 2.2 0 0.4 1.7 0.1 2.5 -0.8 2.5 -0.8 0 -1.4 -1.1 -1.4 -2.5z"/>
  <path d="M6 10.5 c-1 -1.2 -1 -1.9 -0.2 -2.7 0.9 -0.9 1.2 -0.6 1.3 1.3 0.1 1.6 0.3 1.9 0.6 0.7 0.3 -1.1 1.4 -1.8 3 -1.8 1.9 0 2.4 0.4 1.9 1.6 -0.3 0.9 -0.6 1.8 -0.6 2 0 1.1 -4.9 0.2 -6 -1.1z"/>
  <path d="M12.7 5.4 c-1.4 -1.5 -0.6 -3.4 1.4 -3.4 1.4 0 1.9 0.5 1.7 1.7 -0.3 1.8 -2 2.7 -3.1 1.7z"/>
 </g>
 <g fill="#bdbdbd">
  <path d="M5 14.5 c0 -0.8 -0.7 -1.5 -1.5 -1.5 -0.9 0 -1.5 -0.9 -1.5 -2.5 0 -1.4 0.5 -2.5 1.1 -2.5 0.5 0 0.8 0.4 0.5 0.9 -1.1 1.6 2.9 5.4 5.7 5.4 1.5 0 2.7 0.3 2.7 0.8 0 0.5 -1.6 0.9 -3.5 0.9 -2.4 0 -3.5 -0.5 -3.5 -1.5z"/>
  <path d="M6 10.5 c-1 -1.2 -1 -1.8 0 -3 1.7 -2 5.6 -1.9 6.4 0.1 1.4 3.6 -3.9 5.9 -6.4 2.9z"/>
  <path d="M14.3 10 c0.1 -1.1 0.5 -2 0.9 -2 0.4 0 0.8 0.9 0.8 2 0 1.1 -0.4 2 -0.9 2 -0.6 0 -0.9 -0.9 -0.8 -2z"/>
  <path d="M12.7 5.3 c-1.2 -1.1 -0.8 -2.3 0.8 -2.3 0.8 0 1.5 0.7 1.5 1.5 0 1.6 -1.2 2 -2.3 0.8z"/>
 </g>
 <g fill="#c5c5c5">
  <path d="M11.1 13.7 c1.5 -1.2 3.2 -3.1 3.8 -4.2 0.9 -1.7 1 -1.4 1.1 2.3 l0 4.2 -3.7 0 -3.8 0 2.6 -2.3z"/>
  <path d="M9.4 10.4 c0.3 -0.9 0.6 -2.3 0.6 -3.2 0 -1.5 0.1 -1.5 1.7 0 1.3 1.4 1.4 2 0.3 3.2 -1.6 2.1 -3.4 2 -2.6 0z"/>
  <path d="M12.5 5.1 c-0.8 -1.5 0.3 -3.1 2.1 -3.1 0.9 0 1.4 0.7 1.2 1.7 -0.4 2 -2.4 2.8 -3.3 1.4z"/>
 </g>
 <g fill="#cecece">
  <path d="M2 12.3 c0 -3.8 0 -3.8 1.8 -1.6 0.9 1.2 2.6 2.9 3.7 3.7 1.9 1.5 1.8 1.5 -1.7 1.6 -3.7 0 -3.8 -0.1 -3.8 -3.7z"/>
  <path d="M14.1 12.3 c0 -0.5 0.4 -1.7 0.9 -2.8 0.8 -1.8 0.9 -1.7 0.9 0.8 0.1 1.5 -0.3 2.7 -0.9 2.7 -0.5 0 -1 -0.3 -0.9 -0.7z"/>
  <path d="M6.7 11.3 c-1.3 -1.2 -0.7 -2.5 0.8 -1.9 1 0.4 1.5 -0.1 1.5 -1.4 0 -2.4 1.3 -2.6 3 -0.5 1 1.2 1 1.8 0 3 -1.3 1.6 -4.2 2 -5.3 0.8z"/>
 </g>
 <g fill="#d6d6d6">
  <path d="M2 12 c0 -2.2 0.5 -4 1 -4 0.6 0 0.9 0.3 0.9 0.8 -0.8 4.7 3.5 7.2 8.4 4.7 3.8 -1.9 3.7 -1.9 3.7 0.5 0 1.8 -0.7 2 -7 2 l-7 0 0 -4z"/>
  <path d="M6.4 10.5 c-0.3 -0.8 -0.4 -2 -0.1 -2.7 0.3 -0.7 0.6 -0.3 0.6 0.9 0.1 1.4 0.9 2.3 2.4 2.6 l2.2 0.4 -2.3 0.2 c-1.2 0 -2.5 -0.6 -2.8 -1.4z"/>
  <path d="M12.2 3.8 c0.7 -1.9 3.8 -2.2 3.8 -0.4 0 1 -0.9 1.6 -2.1 1.6 -1.2 0 -1.9 -0.5 -1.7 -1.2z"/>
 </g>
 <g fill="#dedede">
  <path d="M12.3 3.8 c0.2 -0.7 1 -1.3 1.7 -1.3 0.7 0 1.5 0.6 1.8 1.3 0.2 0.7 -0.5 1.2 -1.8 1.2 -1.3 0 -2 -0.5 -1.7 -1.2z"/>
 </g>
 <g fill="#e6e6e6">
 </g>
 <g fill="#efefef">
  <path d="M2.7 15.4 c-0.4 -0.4 -0.7 -2.1 -0.7 -3.8 l0.1 -3.1 1.4 2.7 c1.7 3 4.5 4.2 7.5 3.3 1.1 -0.4 2.7 -1.8 3.5 -3.3 l1.5 -2.7 -0.2 3.5 -0.3 3.5 -6 0.3 c-3.4 0.2 -6.4 0 -6.8 -0.4z"/>
  <path d="M13 3.4 c0 -1.7 2.2 -1.4 2.8 0.4 0.2 0.7 -0.3 1.2 -1.2 1.2 -0.9 0 -1.6 -0.7 -1.6 -1.6z"/>
 </g>
 <g fill="#f7f7f7">
  <path d="M4.5 15.2 c-1.4 -0.5 -2.1 -1.7 -2.3 -4.2 l-0.2 -3.5 1.4 3.2 c2.5 5.5 8.7 5.5 11.2 0 l1.4 -3.2 -0.2 3.5 c-0.3 3.7 -1.9 4.8 -6.8 4.8 -1.4 0 -3.4 -0.3 -4.5 -0.6z"/>
 </g>
 <g fill="#ffffff">
  <path d="M5 15.2 c-2 -0.6 -2.5 -1.4 -2.7 -4.2 l-0.3 -3.5 1.5 3.2 c1.7 4 5.5 5.2 8.9 2.9 1.4 -0.8 2.7 -2.6 2.9 -3.8 0.2 -1.3 0.4 -0.6 0.3 1.4 0 2.1 -0.6 3.8 -1.2 3.8 -0.6 0 -2.4 0.2 -4 0.4 -1.6 0.2 -4 0.1 -5.4 -0.2z"/>
  <path d="M6.4 10.6 c-1 -2.6 0.4 -4.8 2.8 -4.4 1.7 0.2 2.3 1 2.3 2.8 0 1.8 -0.6 2.6 -2.3 2.8 -1.3 0.2 -2.5 -0.3 -2.8 -1.2z"/>
  <path d="M13 4 c0 -0.5 0.7 -1 1.5 -1 0.8 0 1.5 0.5 1.5 1 0 0.6 -0.7 1 -1.5 1 -0.8 0 -1.5 -0.4 -1.5 -1z"/>
 </g>
</svg>